<svg width="207" height="84" viewBox="0 0 207 84" fill="none" xmlns="http://www.w3.org/2000/svg">
<g clip-path="url(#clip0)">
<path d="M101.6 12.46C105.041 12.46 107.83 9.67073 107.83 6.23C107.83 2.78927 105.041 0 101.6 0C98.1593 0 95.37 2.78927 95.37 6.23C95.37 9.67073 98.1593 12.46 101.6 12.46Z" fill="#EEB6BB"/>
<path d="M150.88 12.46C154.321 12.46 157.11 9.67073 157.11 6.23C157.11 2.78927 154.321 0 150.88 0C147.439 0 144.65 2.78927 144.65 6.23C144.65 9.67073 147.439 12.46 150.88 12.46Z" fill="#EEB6BB"/>
<path d="M6.23 12.46C9.67073 12.46 12.46 9.67073 12.46 6.23C12.46 2.78927 9.67073 0 6.23 0C2.78927 0 0 2.78927 0 6.23C0 9.67073 2.78927 12.46 6.23 12.46Z" fill="#EEB6BB"/>
<path d="M55.18 12.46C58.6207 12.46 61.41 9.67073 61.41 6.23C61.41 2.78927 58.6207 0 55.18 0C51.7393 0 48.95 2.78927 48.95 6.23C48.95 9.67073 51.7393 12.46 55.18 12.46Z" fill="#EEB6BB"/>
<path d="M200.15 12.46C203.591 12.46 206.38 9.67073 206.38 6.23C206.38 2.78927 203.591 0 200.15 0C196.709 0 193.92 2.78927 193.92 6.23C193.92 9.67073 196.709 12.46 200.15 12.46Z" fill="#EEB6BB"/>
<path d="M101.6 48.06C105.041 48.06 107.83 45.2707 107.83 41.83C107.83 38.3893 105.041 35.6 101.6 35.6C98.1593 35.6 95.37 38.3893 95.37 41.83C95.37 45.2707 98.1593 48.06 101.6 48.06Z" fill="#EEB6BB"/>
<path d="M150.88 48.06C154.321 48.06 157.11 45.2707 157.11 41.83C157.11 38.3893 154.321 35.6 150.88 35.6C147.439 35.6 144.65 38.3893 144.65 41.83C144.65 45.2707 147.439 48.06 150.88 48.06Z" fill="#EEB6BB"/>
<path d="M6.23 48.06C9.67073 48.06 12.46 45.2707 12.46 41.83C12.46 38.3893 9.67073 35.6 6.23 35.6C2.78927 35.6 0 38.3893 0 41.83C0 45.2707 2.78927 48.06 6.23 48.06Z" fill="#EEB6BB"/>
<path d="M55.18 48.06C58.6207 48.06 61.41 45.2707 61.41 41.83C61.41 38.3893 58.6207 35.6 55.18 35.6C51.7393 35.6 48.95 38.3893 48.95 41.83C48.95 45.2707 51.7393 48.06 55.18 48.06Z" fill="#EEB6BB"/>
<path d="M200.15 48.06C203.591 48.06 206.38 45.2707 206.38 41.83C206.38 38.3893 203.591 35.6 200.15 35.6C196.709 35.6 193.92 38.3893 193.92 41.83C193.92 45.2707 196.709 48.06 200.15 48.06Z" fill="#EEB6BB"/>
<path d="M101.6 83.05C105.041 83.05 107.83 80.2607 107.83 76.82C107.83 73.3793 105.041 70.59 101.6 70.59C98.1593 70.59 95.37 73.3793 95.37 76.82C95.37 80.2607 98.1593 83.05 101.6 83.05Z" fill="#EEB6BB"/>
<path d="M150.88 83.05C154.321 83.05 157.11 80.2607 157.11 76.82C157.11 73.3793 154.321 70.59 150.88 70.59C147.439 70.59 144.65 73.3793 144.65 76.82C144.65 80.2607 147.439 83.05 150.88 83.05Z" fill="#EEB6BB"/>
<path d="M6.23 83.05C9.67073 83.05 12.46 80.2607 12.46 76.82C12.46 73.3793 9.67073 70.59 6.23 70.59C2.78927 70.59 0 73.3793 0 76.82C0 80.2607 2.78927 83.05 6.23 83.05Z" fill="#EEB6BB"/>
<path d="M55.18 83.05C58.6207 83.05 61.41 80.2607 61.41 76.82C61.41 73.3793 58.6207 70.59 55.18 70.59C51.7393 70.59 48.95 73.3793 48.95 76.82C48.95 80.2607 51.7393 83.05 55.18 83.05Z" fill="#EEB6BB"/>
<path d="M200.15 83.05C203.591 83.05 206.38 80.2607 206.38 76.82C206.38 73.3793 203.591 70.59 200.15 70.59C196.709 70.59 193.92 73.3793 193.92 76.82C193.92 80.2607 196.709 83.05 200.15 83.05Z" fill="#EEB6BB"/>
</g>
<defs>
<clipPath id="clip0">
<rect width="206.38" height="83.05" fill="white"/>
</clipPath>
</defs>
</svg>
