<svg width="512" height="512" viewBox="0 0 512 512" fill="none" xmlns="http://www.w3.org/2000/svg">
<g id="l4ROPq1XppC6QReNHfOFs83" fill="rgb(0,0,0)" style="transform: none;"><g><path id="pM40GRAe9" d="M2605 4900 c-1658 -5 -1680 -5 -1712 -25 -17 -11 -62 -39 -100 -62 -37 -23 -80 -54 -95 -70 -47 -50 -137 -182 -150 -220 -10 -30 -13 -414 -16 -1886 -3 -2124 -9 -1965 83 -2103 31 -46 59 -84 64 -84 5 0 35 -25 67 -55 33 -30 75 -60 94 -66 19 -7 62 -26 95 -43 60 -31 60 -31 1480 -34 781 -1 1434 0 1451 3 35 6 137 93 159 136 13 24 15 255 15 1756 0 1728 0 1728 -21 1763 -29 48 -68 89 -104 107 -27 14 -170 16 -1341 16 -721 -1 -1326 2 -1345 6 -88 18 -110 175 -31 227 22 14 164 16 1536 16 831 0 1555 3 1609 8 91 8 102 11 179 56 76 45 82 51 110 111 16 35 33 85 39 111 10 43 9 54 -20 129 -28 71 -40 89 -93 137 -70 62 -113 77 -210 74 -35 -2 -819 -5 -1743 -8z m-62 -1536 c22 -20 58 -45 82 -55 23 -10 67 -34 98 -52 31 -19 73 -37 94 -40 21 -4 61 -21 88 -38 28 -18 69 -40 93 -50 44 -19 97 -59 183 -139 64 -59 80 -115 85 -310 6 -191 27 -251 111 -318 21 -16 61 -62 88 -102 47 -68 50 -76 53 -146 8 -149 -14 -199 -147 -334 -108 -111 -103 -97 -106 -283 -3 -177 -16 -244 -59 -306 -42 -61 -98 -109 -161 -140 -34 -16 -67 -36 -74 -45 -8 -9 -46 -26 -85 -38 -39 -11 -89 -34 -112 -49 -23 -15 -64 -37 -92 -47 -29 -11 -72 -38 -98 -61 -74 -65 -135 -67 -203 -6 -21 19 -68 48 -104 65 -36 16 -81 40 -101 54 -20 13 -59 29 -88 36 -29 7 -71 25 -94 40 -22 16 -65 40 -95 53 -72 32 -141 108 -187 205 -35 76 -36 79 -42 242 -4 109 -11 174 -20 190 -7 14 -48 62 -91 108 -63 67 -82 93 -93 135 -26 90 -30 186 -12 256 19 74 38 102 105 156 27 22 62 62 77 90 26 47 28 59 34 215 6 165 6 165 50 257 41 86 50 97 118 149 41 30 90 61 111 69 20 7 58 26 85 43 27 17 72 39 100 48 76 25 215 102 263 146 56 50 91 51 146 2z"></path><path id="pudaYyxZL" d="M2295 2776 c-144 -49 -354 -203 -400 -292 -11 -22 -36 -65 -57 -97 -36 -57 -43 -85 -67 -249 -9 -68 18 -283 43 -338 50 -113 188 -283 246 -307 19 -8 58 -30 85 -49 66 -45 260 -89 318 -73 47 13 69 46 65 96 -2 31 -9 41 -37 58 -19 11 -61 45 -94 76 -59 55 -59 55 -78 155 -18 92 -18 105 -4 187 18 106 28 124 116 203 106 96 135 106 277 102 119 -3 119 -3 168 -43 27 -22 88 -77 136 -122 84 -80 113 -96 144 -75 23 15 34 53 34 114 0 80 -17 140 -70 252 -70 147 -193 267 -367 356 -106 55 -106 55 -262 57 -111 2 -167 -1 -196 -11z"></path><path id="p1Az0n1je9" d="M2667 2021 c-57 -12 -88 -40 -126 -114 -34 -65 -34 -68 -22 -122 15 -68 55 -116 122 -151 69 -34 105 -31 177 15 76 50 95 84 94 172 0 80 -32 154 -78 181 -35 20 -115 29 -167 19z"></path><path id="pa2NcUE30" d="M4432 4019 c-39 -15 -120 -89 -134 -122 -11 -26 -13 -325 -13 -1667 0 -1436 2 -1638 15 -1662 24 -42 117 -116 155 -124 59 -11 104 4 154 51 26 24 58 66 71 92 25 48 25 48 28 1613 1 1007 -1 1583 -8 1618 -12 65 -77 161 -131 191 -38 22 -97 26 -137 10z"></path></g></g>
</svg>
