<svg width="18" height="18" viewBox="0 0 18 18" fill="none" xmlns="http://www.w3.org/2000/svg">
<path fill-rule="evenodd" clip-rule="evenodd" d="M1.02123 1.045C1.41175 0.654475 2.04491 0.654474 2.43544 1.045L17.4979 16.1074C17.8884 16.4979 17.8884 17.1311 17.4979 17.5216C17.1074 17.9121 16.4742 17.9121 16.0837 17.5216L1.02123 2.45921C0.630702 2.06869 0.630701 1.43552 1.02123 1.045Z" fill="#fff"/>
<path fill-rule="evenodd" clip-rule="evenodd" d="M17.6149 0.998154C18.0055 1.38868 18.0055 2.02184 17.6149 2.41237L2.59938 17.4279C2.20886 17.8185 1.57569 17.8185 1.18517 17.4279C0.794642 17.0374 0.794642 16.4042 1.18517 16.0137L16.2007 0.998154C16.5913 0.60763 17.2244 0.60763 17.6149 0.998154Z" fill="#fff"/>
</svg>
