<svg width="73" height="56" viewBox="0 0 73 56" fill="none" xmlns="http://www.w3.org/2000/svg">
<g clip-path="url(#clip0)">
<path d="M31.0208 55.1141C24.963 50.3088 15.9999 45.7452 12.6857 38.1606C11.5679 35.5246 11.0682 30.0319 12.4417 27.5114C14.9647 23.0704 18.2681 19.0049 21.1516 14.8516C23.7531 11.3229 26.2463 9.71927 30.5326 10.7453C31.4936 10.9838 31.7662 12.1319 31.5394 12.3469C27.1005 16.5555 23.8098 19.3857 21.2278 23.7118C20.3342 25.2226 20.5127 26.8584 21.2736 28.3974C22.2956 30.4761 24.0345 32.1118 25.8345 32.6912C28.092 33.4238 28.4276 33.509 29.3428 33.509C32.9869 33.509 36.7659 30.5724 39.1815 27.8522C39.9595 26.9491 40.0968 26.8639 40.7069 26.8639C44.7221 26.8639 53.9007 36.22 55.6403 39.8474C55.8234 40.2223 55.8234 41.5513 55.6251 42.1136C55.32 42.9996 53.5353 45.3168 52.8642 45.7087C52.1112 46.1293 50.3746 45.3737 49.9202 46.1858C49.2643 47.4467 48.4406 48.6394 47.9524 49.0824C47.4643 49.5254 47.2203 49.6106 46.305 49.6617C45.7165 49.7004 43.9434 48.9684 43.6204 49.4402C42.7562 50.957 42.1929 52.7325 40.3561 53.2739C39.5781 53.5125 38.9832 53.308 38.007 52.4901C36.2362 50.948 35.6623 54.9714 34.0105 55.7786C33.7359 55.8979 33.2173 56.0001 32.8512 56.0001C32.2868 56.0001 31.9818 55.8638 31.0208 55.1141Z" fill="#2A6D35"/>
<path d="M55.2285 34.3948C54.8777 34.1392 54.2065 33.594 53.7184 33.168C53.2455 32.7421 52.6354 32.2139 52.3608 31.9753C52.071 31.7368 51.11 30.9019 50.21 30.1011C49.31 29.3002 48.1507 28.295 47.6321 27.852C46.2898 26.7274 44.2915 24.9554 42.5068 23.3367C41.4086 22.3484 40.8289 21.9225 40.5391 21.9225C40.234 21.9395 39.7002 22.4166 38.3121 23.899C37.3053 24.9895 36.2375 26.0629 35.9477 26.3185C35.6579 26.557 35.2003 26.9659 34.9562 27.2386C33.7969 28.4313 30.3801 30.1011 29.0988 30.1011C28.3666 30.1011 26.1853 29.1128 25.3464 28.4142C24.4616 27.6645 23.7905 26.3185 23.9583 25.6199C24.004 25.3643 24.6294 24.5976 25.3769 23.8479C26.109 23.1152 27.2836 21.9054 28.0158 21.1557C28.7327 20.406 30.1971 18.9066 31.2801 17.8332C32.3631 16.7598 33.5071 15.6011 33.8122 15.2774C34.9257 14.0847 37.7172 11.2051 38.5256 10.4384C39.0595 9.94426 39.7002 9.53533 40.3561 9.29679C41.256 8.95602 41.4391 8.93898 42.2018 9.1264C42.6594 9.22864 44.0017 9.39902 45.1763 9.48422C46.3508 9.58645 47.4796 9.70572 47.6931 9.75684C48.4863 9.9613 49.6761 10.9836 51.6591 13.2327C62.0774 25.0065 62.3367 25.3302 62.4588 26.8126C62.5198 27.6305 62.474 27.8179 61.8944 28.8913C61.5588 29.5388 61.1012 30.2033 60.9029 30.3907C60.7046 30.5611 59.6368 31.6346 58.5386 32.7932C57.1505 34.2585 56.4488 34.8719 56.2047 34.8549C56.0064 34.8549 55.5641 34.6334 55.2285 34.3948Z" fill="#2A6D35"/>
<path d="M5.42496 26.9148C1.35221 23.473 0.131905 22.3143 0.0251288 21.7691C-0.0969013 21.1046 0.223428 20.3038 1.03188 19.2474C1.39797 18.7873 1.97761 17.9865 2.31319 17.4924C2.64878 16.9983 3.3352 16.01 3.83857 15.2944C4.34194 14.5788 4.92159 13.7268 5.13514 13.4031C5.33344 13.0794 5.91308 12.2274 6.43171 11.5288C6.93508 10.8302 7.56049 9.96131 7.80455 9.58645C8.06386 9.22864 8.71978 8.27447 9.29942 7.45661C9.86381 6.6558 10.8095 5.2927 11.3892 4.42372C13.1891 1.78272 13.4027 1.74864 15.584 3.69106C16.4229 4.44076 17.7958 5.65051 18.6347 6.3491C20.9075 8.27447 21.1363 9.09233 19.8398 10.745C19.2296 11.5288 16.5755 15.3285 15.889 16.4019C15.6297 16.7938 14.745 18.0717 13.9061 19.2474C11.679 22.3655 10.6875 23.8137 9.49772 25.6369C7.77404 28.2608 7.22491 28.4312 5.42496 26.9148Z" fill="#2A6D35"/>
<path d="M65.2502 23.6775C65.0061 23.4049 63.6943 21.8543 62.3215 20.2186C60.9639 18.5829 59.1487 16.436 58.3097 15.4478C57.4555 14.4595 56.4335 13.2327 56.0217 12.7216C55.6098 12.2104 54.5268 10.9155 53.6116 9.87612C52.0557 8.05298 51.9642 7.91667 51.9642 7.25216C51.9642 6.55357 52.0252 6.46838 54.5726 3.70811C56.0064 2.15758 57.486 0.658176 57.8521 0.385557C58.4623 -0.0574501 58.5691 -0.0744888 58.9809 0.112937C59.2402 0.232208 60.4148 1.49307 61.5893 2.90729C62.7791 4.3215 63.9231 5.66756 64.1519 5.88906C64.3655 6.11057 64.6858 6.50246 64.8536 6.75804C65.1587 7.21808 71.2754 14.5447 72.1907 15.533C73.4262 16.8961 73.3194 17.4584 71.367 19.5882C70.5585 20.4742 69.6433 21.4284 69.3535 21.684C69.0636 21.9395 68.3925 22.604 67.8739 23.1493C67.0501 24.0183 66.8671 24.1375 66.318 24.1375C65.8451 24.1375 65.5858 24.0183 65.2502 23.6775Z" fill="#2A6D35"/>
</g>
<defs>
<clipPath id="clip0">
<rect width="73" height="56" fill="white"/>
</clipPath>
</defs>
</svg>
