<svg width="57" height="59" viewBox="0 0 57 59" fill="none" xmlns="http://www.w3.org/2000/svg">
<g clip-path="url(#clip0)">
<path d="M30.756 58.938C30.5227 58.8991 30.1987 58.7047 30.0431 58.5103C29.7709 58.1992 29.745 58.0437 29.745 56.6051C29.745 54.7646 29.8876 54.3628 30.6912 53.8963C31.2355 53.5852 31.2355 53.5852 41.2153 53.5593C48.2012 53.5334 51.3248 53.5722 51.6358 53.663C51.9858 53.7796 52.1283 53.9481 52.3875 54.5184C52.6856 55.1794 52.7116 55.3479 52.6597 56.618C52.6338 57.3698 52.5301 58.1215 52.4394 58.29C52.0765 58.9769 52.5042 58.951 41.4486 58.9899C35.7977 59.0158 30.9893 58.9899 30.756 58.938Z" fill="#2A6D35"/>
<path d="M30.8467 50.7079C29.6413 50.4616 29.5506 50.3968 27.4769 48.5304C26.9844 48.0898 26.2715 47.4806 25.9086 47.1955C25.5457 46.9103 24.8717 46.2364 24.4052 45.705C23.1739 44.2923 23.0961 43.9034 23.0702 39.1339C23.0443 35.5696 23.0702 35.2197 23.472 33.4441C23.5368 33.133 24.9625 31.5648 25.3772 31.3444C25.8827 31.0722 27.6842 30.8389 28.2804 30.9686C29.5636 31.2667 29.758 31.6166 29.8746 33.9495C29.9653 35.777 30.1468 36.4639 30.6782 37.0212C31.0022 37.3712 31.6632 37.423 31.7669 37.1249C31.8187 37.0083 31.8576 31.6036 31.8706 25.0973C31.8835 15.3119 31.9095 13.2252 32.065 12.966C32.402 12.3698 33.5944 11.2681 34.035 11.1385C34.6053 10.97 35.7718 10.97 36.3939 11.1515C36.705 11.2293 37.1067 11.5273 37.5215 11.9551C38.6491 13.1215 38.6102 12.9401 38.5972 17.8781C38.5843 20.6777 38.6361 22.2719 38.7139 22.3755C38.9212 22.6348 39.5174 22.57 39.9192 22.2589C40.1266 22.1034 40.5284 21.9608 40.8783 21.9219C41.4097 21.8701 41.643 21.9349 42.4595 22.3626C42.9909 22.6348 43.639 23.0884 43.9112 23.3735C44.4037 23.866 44.4296 23.879 45.1424 23.7883C47.281 23.555 47.4624 23.555 48.1882 23.7623C48.8103 23.9438 49.0177 24.0993 49.6528 24.8122C50.0675 25.2788 50.4952 25.6546 50.6119 25.6546C50.7285 25.6546 51.0914 25.4861 51.4025 25.2658C51.8691 24.9547 52.1024 24.877 52.7245 24.877C54.0206 24.877 54.9149 25.4861 55.8092 26.9766C56.3794 27.9098 56.3794 27.9098 56.3794 35.6474C56.3794 43.372 56.3794 43.372 55.7962 44.5126C55.2778 45.5365 54.9797 45.8735 52.9837 47.8954C51.7524 49.1266 50.56 50.2413 50.3397 50.3579C50.1194 50.4746 49.3936 50.6171 48.7455 50.6819C47.6179 50.7856 31.3781 50.8115 30.8467 50.7079Z" fill="#2A6D35"/>
<path d="M1.80155 27.3266C1.58122 27.2618 1.16647 26.9766 0.868374 26.6785C0.064804 25.862 0 25.4473 0 20.9887C0 17.6708 0.0259216 17.0616 0.233294 16.4136C0.466589 15.6619 0.466589 15.6619 1.46457 15.1823C2.46255 14.7028 2.46255 14.7028 4.60108 14.6898C5.78052 14.6898 6.81738 14.6768 6.89515 14.6639C7.11548 14.625 7.45246 13.951 7.45246 13.5492C7.45246 12.6809 7.03772 12.5513 4.1993 12.5901C2.73473 12.6161 1.9182 12.5642 1.59418 12.4605C0.518432 12.0847 -0.0907256 10.7627 0.194412 9.40179C0.388824 8.48157 0.661001 8.14459 1.59418 7.72984C2.35887 7.3799 2.35887 7.3799 6.16934 7.36694C9.48731 7.35398 10.0446 7.3799 10.4982 7.57431C11.3666 7.95018 12.0795 8.50749 12.235 8.94816C12.3257 9.2333 12.3776 11.3589 12.3776 15.5582C12.3776 22.4144 12.3516 22.1552 13.2071 22.1552C13.9458 22.1552 14.4513 21.909 14.5291 21.5072C14.5679 21.3128 14.6198 18.591 14.6198 15.4674C14.6457 9.77765 14.6457 9.77765 14.9697 9C15.2678 8.2742 15.3456 8.19643 16.0584 7.85945C17.0175 7.39286 17.536 7.39286 18.4432 7.85945C19.7523 8.52045 19.6875 8.15755 19.7652 15.4415C19.843 22.7125 19.7523 22.2459 20.9706 22.1034C21.3724 22.0515 21.7612 21.9219 21.8519 21.8182C21.9686 21.6757 22.0074 20.2759 21.9815 15.8822C21.9556 9.86837 21.9815 9.47955 22.5129 8.66302C22.8629 8.14459 24.0293 7.50951 24.6514 7.50951C25.6624 7.50951 26.777 8.339 27.0103 9.24626C27.101 9.64804 27.1529 12.2791 27.1529 17.5801C27.1529 24.8511 27.127 25.3565 26.9066 25.849C26.5826 26.5619 25.8568 27.2099 25.2606 27.3525C24.5996 27.4951 2.33294 27.4821 1.80155 27.3266Z" fill="#2A6D35"/>
<path d="M2.13852 5.17654C1.42567 5.08582 1.10165 4.90437 0.673947 4.41186C0.194397 3.82862 0.0129465 2.89544 0.194397 1.98819C0.388809 1.06797 0.777634 0.653223 1.80154 0.264399C2.55326 -0.0207383 2.55326 -0.0207382 13.9199 0.0181442C25.2735 0.0570266 25.2735 0.0570266 25.792 0.394007C26.4789 0.847635 26.7511 1.17166 26.9714 1.76785C27.451 3.1417 26.8418 4.59331 25.5328 5.11174C25.2347 5.22839 3.01985 5.29319 2.13852 5.17654Z" fill="#2A6D35"/>
</g>
<defs>
<clipPath id="clip0">
<rect width="57" height="59" fill="white"/>
</clipPath>
</defs>
</svg>
