<svg width="48" height="53" viewBox="0 0 48 53" fill="none" xmlns="http://www.w3.org/2000/svg">
<path d="M4.07446 51.8009C2.50513 51.7956 0.218824 51.2144 0.230007 47.8522C0.23565 46.1556 0.0999086 37.92 0.121271 26.7637C0.152449 10.4811 0.127935 6.1975 0.442612 4.61731C0.83131 2.66541 3.16009 0.991342 4.91829 0.317582C7.86633 -0.205138 16.9059 0.161043 21.2644 0.166337C29.997 0.184211 36.5212 0.232812 37.4883 0.253862C38.4555 0.274912 39.2646 0.723801 39.2611 1.78043C39.2576 2.83707 39.4193 4.63223 39.3635 21.4154C39.2992 40.7367 39.2992 40.7367 39.0631 41.1272C38.7371 41.6628 38.2995 42.1198 37.8963 42.3198C37.5939 42.4753 35.9949 42.4923 22.9016 42.4488C14.8399 42.4108 8.07507 42.4218 7.86248 42.4658C6.87786 42.6638 6.62603 44.4184 7.50741 45.0028C7.75288 45.1602 9.34055 45.1878 24.6813 45.2389C33.973 45.2698 42.9475 45.3332 43.5511 45.3911C48.1259 45.4063 48.1893 52.4591 43.584 52.3013C33.9641 52.2693 9.72266 51.8197 4.07446 51.8009ZM22.5798 34.9673C22.8266 34.7445 23.23 34.4663 23.4987 34.3554C23.7563 34.2444 24.2491 33.9777 24.5964 33.7776C24.9438 33.5663 25.414 33.3666 25.649 33.3339C25.8839 33.2899 26.3318 33.1013 26.6343 32.9122C26.9481 32.712 27.4073 32.4676 27.6761 32.3566C28.1687 32.1458 28.7628 31.7005 29.7274 30.8092C30.4452 30.1519 30.6262 29.5264 30.6894 27.3462C30.7635 25.2108 31.0006 24.5407 31.9423 23.7947C32.1777 23.6166 32.6267 23.1037 32.9301 22.6575C33.4581 21.8989 33.4919 21.8095 33.5281 21.027C33.6231 19.3612 33.379 18.8014 31.8969 17.2869C30.6934 16.0418 30.7488 16.1985 30.7222 14.1187C30.6952 12.1395 30.5524 11.3899 30.0739 10.695C29.6065 10.0114 28.9822 9.4726 28.2789 9.12364C27.8993 8.94347 27.5311 8.71862 27.4531 8.61773C27.364 8.5168 26.9398 8.3253 26.5041 8.18968C26.0685 8.06523 25.5103 7.8062 25.2537 7.63763C24.9971 7.46905 24.5394 7.22154 24.2267 7.10868C23.9029 6.98461 23.4231 6.68111 23.1332 6.42298C22.3082 5.69344 21.6262 5.66881 20.8637 6.34834C20.6281 6.56 20.1015 6.88251 19.6984 7.07125C19.2953 7.24881 18.7912 7.51549 18.5671 7.67128C18.3429 7.8159 17.9063 7.99335 17.5818 8.07054C17.2572 8.14773 16.787 8.34743 16.5292 8.51429C16.2827 8.69238 15.801 8.95913 15.465 9.10337C14.6588 9.45849 13.8845 10.3057 13.3665 11.3886C12.9723 12.2371 12.961 12.2706 12.8879 14.0929C12.8391 15.3115 12.7584 16.038 12.6572 16.2166C12.5784 16.3729 12.1182 16.908 11.6357 17.4208C10.9288 18.1676 10.7154 18.4576 10.5908 18.9268C10.2967 19.9322 10.2484 21.0054 10.4471 21.7888C10.6568 22.6169 10.8682 22.9307 11.6153 23.537C11.9164 23.784 12.3063 24.2325 12.4729 24.5461C12.7619 25.0726 12.7838 25.2069 12.8451 26.9514C12.9061 28.7965 12.9061 28.7965 13.3946 29.8268C13.8498 30.79 13.9501 30.9133 14.7085 31.4972C15.1658 31.8342 15.7125 32.1827 15.947 32.2729C16.1704 32.3519 16.5946 32.5658 16.8958 32.7568C17.1971 32.9479 17.6994 33.1956 18.0122 33.2973C18.861 33.5796 20.4124 34.4458 20.9474 34.9395C21.5717 35.5007 21.963 35.5132 22.5798 34.9673Z" fill="url(#paint0_linear)"/>
<path d="M14.137 21.2469C14.0389 20.4863 14.3488 18.0833 14.6304 17.4692C15.6807 15.1168 19.026 11.8926 21.903 12.6966C22.4281 12.8437 22.6173 13.1071 22.6159 13.5152C22.5707 14.1813 21.6005 14.8516 21.1565 15.2658C19.501 16.7988 19.9343 19.9311 21.5164 21.3609C23.6919 23.3444 26.0601 22.4987 28.0151 20.6781C28.9573 19.7867 29.2821 19.6089 29.628 19.8449C29.8846 20.0134 30.0062 20.4387 30.0039 21.1208C30.0009 22.0153 29.8086 22.6856 29.2118 23.9359C28.4237 25.5769 27.0439 26.9141 25.0951 27.9028C20.3264 30.357 14.839 26.1574 14.137 21.2469Z" fill="url(#paint1_linear)"/>
<path d="M42.3249 40.8692C42.203 40.5624 42.1924 37.0395 42.245 21.2278C42.3013 4.30854 42.2974 2.15236 42.4436 1.87007C43.5344 -0.126667 45.7964 -0.0874486 46.7235 1.88431C47.001 2.45079 47.001 2.45079 46.9731 20.89C46.9448 32.7547 46.8995 40.472 46.8199 40.8841C46.455 42.9279 43.2163 43.1059 42.3249 40.8692Z" fill="url(#paint2_linear)"/>
<circle cx="24.3045" cy="18.0367" r="2.39906" transform="rotate(0.190636 24.3045 18.0367)" fill="url(#paint3_linear)"/>
<defs>
<linearGradient id="paint0_linear" x1="23.6838" y1="0.0781524" x2="23.5103" y2="52.2367" gradientUnits="userSpaceOnUse">
<stop stop-color="#0C4524"/>
<stop offset="1" stop-color="#040B07"/>
</linearGradient>
<linearGradient id="paint1_linear" x1="22.0892" y1="12.5746" x2="22.0358" y2="28.6242" gradientUnits="userSpaceOnUse">
<stop stop-color="#0C4524"/>
<stop offset="1" stop-color="#040B07"/>
</linearGradient>
<linearGradient id="paint2_linear" x1="44.6792" y1="0.389095" x2="44.5391" y2="42.4819" gradientUnits="userSpaceOnUse">
<stop stop-color="#0C4524"/>
<stop offset="1" stop-color="#040B07"/>
</linearGradient>
<linearGradient id="paint3_linear" x1="24.3045" y1="15.6377" x2="24.3045" y2="20.4358" gradientUnits="userSpaceOnUse">
<stop stop-color="#0C4524"/>
<stop offset="1" stop-color="#040B07"/>
</linearGradient>
</defs>
</svg>
