<svg width="53" height="54" viewBox="0 0 53 54" fill="none" xmlns="http://www.w3.org/2000/svg">
<g clip-path="url(#clip0)">
<path d="M2.94925 13.6706C3.43075 12.6705 5.09748 10.3618 6.33209 9.01606C11.4882 3.33857 18.5321 0.246678 26.1353 0.00337587C28.8118 -0.0829624 30.2614 1.51049 27.0613 2.06518C24.518 2.4973 20.3326 5.34926 18.2461 8.06541C12.6955 15.2228 12.8552 26.2504 19.1598 32.9429C26.7034 40.9056 40.917 40.8895 47.8399 32.0787C49.2844 30.2638 50.3461 28.4242 50.6548 27.2019C52.0705 22.1681 53.1793 24.4674 52.9759 28.4489C52.6744 34.7125 49.2303 41.899 44.741 46.1409C23.3858 66.408 -10.1507 40.9622 2.94925 13.6706Z" fill="#2A6D35"/>
<path d="M28.3135 26.2514C26.8514 25.1687 29.1949 21.4696 28.8691 19.5513C28.6222 19.1809 27.8244 18.687 26.8514 17.7202C24.9007 15.7819 24.6661 15.4238 24.8883 14.7942C25.1476 14.0657 26.9255 13.5595 29.2342 13.5472C30.0546 13.5472 30.6148 13.4492 31.0155 13.193C32.5881 12.1875 32.3162 7.43693 34.7282 7.78151C36.7175 8.07161 37.0941 12.0479 38.5555 13.2879C38.6913 13.399 39.3457 13.4978 40.4692 13.5595C43.173 13.7447 43.815 13.9546 44.4446 14.8559C44.4868 16.2257 43.3073 16.9695 42.3705 17.9177C41.1853 19.1153 40.4815 19.9055 40.4198 20.14C40.3581 20.3746 40.4321 20.8067 40.6544 21.4981C41.0988 22.8685 41.3087 24.8563 41.1235 25.7205C40.8643 26.8563 40.4692 26.9551 38.9506 26.2514C38.3333 25.9674 37.7036 25.6341 37.5308 25.523C36.753 24.9797 35.0245 24.1649 34.6541 24.1649C32.7951 24.1649 29.309 26.9885 28.3135 26.2514Z" fill="#2A6D35"/>
</g>
<defs>
<clipPath id="clip0">
<rect width="53" height="54" fill="white"/>
</clipPath>
</defs>
</svg>
