<svg width="65" height="66" viewBox="0 0 65 66" fill="none" xmlns="http://www.w3.org/2000/svg">
<g clip-path="url(#clip0)">
<path d="M31.9526 65.1461C31.8021 65.1051 31.5558 65.0503 31.4053 65.023C30.42 64.8177 28.2442 62.8472 26.7253 60.7808C25.4116 59.0156 24.0021 57.6198 22.8937 57.004C21.8537 56.4293 21.7989 56.4156 20.3211 56.3609C18.9116 56.3061 17.1326 56.4977 15.3674 56.8945C14.2179 57.1409 12.8905 57.0451 11.4537 56.5935C10.1537 56.1693 10.0716 56.1282 9.44211 55.3482C9.05895 54.9103 8.70316 54.2945 8.60737 53.9798C8.51158 53.6103 8.47053 52.3651 8.49789 50.5314C8.58 45.6324 8.55263 42.8682 8.44316 42.4851C8.30632 41.9651 6.08947 39.7756 4.51579 38.5851C2.16211 36.8198 0.998947 35.5198 0.410526 33.9872C0.191579 33.3987 0 32.783 0 32.6187C0 32.4545 0.191579 31.8251 0.437895 31.2229C0.848421 30.2514 1.04 29.9914 2.35368 28.664C3.16105 27.8566 4.14632 26.9808 4.55684 26.7208C5.51474 26.1051 7.95053 23.6693 8.29263 22.9987C8.56632 22.424 8.60737 20.864 8.49789 14.5282C8.47053 12.8177 8.49789 11.7229 8.60737 11.3398C8.82632 10.5324 9.78421 9.41032 10.6053 8.98611C11.2621 8.65769 11.3716 8.644 13.6842 8.644C14.9979 8.65769 17.4337 8.67137 19.0895 8.69874C22.3737 8.75348 22.5926 8.72611 23.6326 7.93242C24.0705 7.604 26.1368 5.264 27.82 3.19769C28.5179 2.33558 30.0232 1.09032 31.1316 0.44716C32.2537 -0.182314 32.5274 -0.16863 34.2242 0.625055C35.5653 1.26821 36.8516 2.41769 38.1105 4.1419C39.5337 6.09874 40.7379 7.38506 41.8463 8.124C42.6537 8.65769 42.6811 8.67137 44.2137 8.75348C45.0758 8.79453 47.1558 8.75348 48.8526 8.644C51.6989 8.47979 53.2179 8.52084 54.1211 8.79453C54.8189 9.01348 55.7905 9.95769 56.3105 10.943C56.8305 11.9008 56.8442 11.9693 56.8989 13.5703C56.94 14.8703 56.8853 15.5135 56.6526 16.6493C56.4884 17.443 56.3242 18.8524 56.2832 19.7966L56.2147 21.5072L56.8305 22.7387C57.3505 23.7924 57.6105 24.1345 58.5821 25.0514C59.2116 25.6398 60.0189 26.324 60.3747 26.5566C61.5105 27.323 63.5768 29.2798 64.1653 30.1282C64.8358 31.1135 65 31.6198 65 32.7966C65 33.7408 64.9179 33.9598 64.0147 35.3008C63.5495 35.9987 61.4832 38.0103 60.9358 38.3251C60.7989 38.3935 59.9779 39.0914 59.1158 39.844C57.8158 41.0072 57.4326 41.4314 56.9263 42.3208C56.3242 43.3882 56.3105 43.4156 56.2695 44.8524C56.2284 46.0156 56.2832 46.6177 56.5295 47.7398C56.7621 48.8072 56.8305 49.6145 56.8442 51.0651C56.8579 52.8714 56.8305 53.0356 56.4747 53.9387C56.0368 54.9924 55.5853 55.6766 55.0653 56.0187C54.8737 56.1419 54.1895 56.4156 53.5326 56.6345C52.0274 57.1272 51.1653 57.1272 48.3463 56.6619C46.6905 56.3882 45.8284 56.3198 44.6789 56.3609L43.1737 56.4019L42.1063 57.0724C41.0389 57.743 40.6147 58.1809 38.0421 61.2598C35.88 63.8598 34.3611 65.023 32.9789 65.1461C32.5684 65.1872 32.1032 65.1872 31.9526 65.1461ZM45.7053 47.2882C46.5263 47.0966 47.1832 46.5766 47.5389 45.8103C47.8263 45.1945 47.8263 45.0166 47.8674 37.1208C47.8947 29.8272 47.8811 28.9787 47.6758 28.3082C47.3747 27.364 46.7726 26.7208 45.9789 26.5019C44.6926 26.1598 43.6116 26.6661 43.0505 27.8703C42.7768 28.4724 42.7632 28.6914 42.7495 35.164C42.7358 39.3514 42.6811 41.8966 42.5989 41.9787C42.3253 42.2524 40.2042 42.184 39.9168 41.8966C39.7389 41.7324 39.7116 40.7335 39.7116 35.164C39.7116 29.1293 39.6842 28.5682 39.4516 27.9798C39.1368 27.1861 38.6989 26.6798 38.2474 26.5566C38.0558 26.5156 37.4811 26.5019 36.9611 26.5293C35.88 26.584 35.6611 26.7208 35.0589 27.7198L34.6895 28.3493L34.6484 35.0819C34.6074 42.7861 34.7716 42.0061 33.1842 42.1566C31.5832 42.3072 31.72 42.964 31.7337 35.1093L31.7611 28.3493L31.4463 27.7472C31.0768 27.0219 30.6253 26.6661 29.9 26.5019C29.2158 26.3514 20.1705 26.3377 19.3495 26.4882C18.8568 26.584 18.5695 26.7482 18.0905 27.2272C17.5158 27.8156 17.4611 27.9114 17.4063 28.6777C17.3242 29.7861 17.4337 30.1419 18.0358 30.6893C19.0211 31.6198 19.0211 31.6198 22.7842 31.6608C26.0958 31.6882 26.2189 31.7019 26.4516 31.9893C26.7937 32.4135 26.7663 33.4808 26.3968 33.9461L26.1232 34.3019H22.6747H19.2263L18.5558 34.8219C17.2284 35.8208 17.3105 35.4377 17.3105 40.8703V45.6324L17.9947 46.3851C18.3779 46.7956 18.8705 47.2061 19.0895 47.2745C19.6642 47.4661 44.8842 47.4798 45.7053 47.2882ZM45.3358 22.8208C46.5263 22.6977 46.8274 22.5061 47.2242 21.644C47.7442 20.5356 47.4158 19.1535 46.54 18.7156C46.2663 18.5787 45.8832 18.4282 45.6642 18.3735C45.4589 18.3324 39.5747 18.2777 32.5958 18.264C23.2495 18.264 19.76 18.2914 19.3221 18.4145C18.1316 18.743 17.3926 19.7966 17.5705 20.9187C17.68 21.6166 17.9674 22.0408 18.5968 22.424L19.0895 22.7387L31.1316 22.8072C37.7547 22.8482 43.42 22.8893 43.7211 22.903C44.0221 22.9166 44.7474 22.8756 45.3358 22.8208Z" fill="#2A6D35"/>
<path d="M22.6474 43.183C22.4284 43.1282 22.0179 42.8956 21.7579 42.6767C21.2926 42.2798 21.279 42.2388 21.2379 41.1988C21.1832 39.9125 21.4021 39.1598 21.9358 38.763C22.2505 38.5303 22.5926 38.4756 24.2621 38.3935C26.4516 38.284 26.9716 38.3935 27.5737 39.1188C27.8884 39.4882 27.9158 39.6388 27.9158 40.7198C27.9158 43.0051 27.6832 43.1967 24.919 43.2651C23.8926 43.2925 22.88 43.2514 22.6474 43.183Z" fill="#2A6D35"/>
</g>
<defs>
<clipPath id="clip0">
<rect width="65" height="66" fill="white"/>
</clipPath>
</defs>
</svg>
