<svg width="396" height="486" viewBox="0 0 396 486" fill="none" xmlns="http://www.w3.org/2000/svg">
<mask id="mask0" mask-type="alpha" maskUnits="userSpaceOnUse" x="0" y="0" width="396" height="486">
<rect width="396" height="486" transform="matrix(-1 0 0 1 396 0)" fill="#E9E4E4"/>
</mask>
<g mask="url(#mask0)">
<path d="M502.235 648.39C514.863 637.946 510.734 624.376 510.144 611.593C510.057 609.627 508.855 606.677 507.304 605.934C494.458 599.75 497.647 588.213 497.473 577.79C496.97 544.686 499.832 511.101 495.397 478.543C481.459 376.258 408.643 305.002 306.246 289.576C304.127 289.248 301.986 288.942 298.643 288.439C300.216 269.385 292.744 256.624 277.146 254.723C270.045 245.218 263.71 239.1 260.433 231.605C257.877 225.749 259.624 218.145 258.532 211.459C256.915 201.582 263.251 200.664 270.329 198.719C322.915 184.254 353.523 130.348 339.497 77.4466C325.733 25.5069 271.422 -6.41732 219.732 7.10842C217.831 7.61099 216.083 8.63799 212.784 10.0583C263.142 14.2974 291.324 34.9028 301.352 73.6664C310.178 107.754 296.349 143.458 266.615 163.343C233.517 185.5 198.715 181.719 159.456 151.696C164.393 174.072 198.016 196.556 237.166 202.849C237.166 211.174 237.297 219.784 237.056 228.371C237.013 229.813 235.483 231.277 234.522 232.632C230.262 238.663 225.958 244.672 223.336 251.927C204.482 256.056 195.503 268.074 197.186 285.358C171.952 293.378 146.872 298.185 124.697 308.979C43.9069 348.333 1.61114 414.017 -1.3819 504.108C-2.32132 532.471 -1.57854 560.899 -1.49115 589.305C-1.4693 594.855 -1.73145 598.963 -7.69568 602.765C-19.0561 609.976 -18.1604 635.061 -6.73438 648.412C-58.0093 660.714 -81.9318 694.102 -81.3638 746.545C-84.5971 746.938 -87.328 747.506 -90.0807 747.572C-107.842 748.074 -113.086 753.45 -113.086 771.542C-113.107 846.185 -113.086 920.85 -113.086 995.493C-113.086 999.819 -113.086 1004.15 -113.086 1008.23C-132.988 1013.98 -136.309 1017.78 -134.561 1032.31C-133.622 1040.13 -129.536 1045.01 -121.388 1045.79C-119.225 1046.01 -117.018 1045.99 -114.855 1045.99C126.882 1045.99 368.641 1046.01 610.378 1045.99C626.741 1045.99 633.033 1038.63 630.434 1022.96C628.555 1011.66 619.947 1010.31 609.089 1009.67C609.089 1005.37 609.089 1001.2 609.089 997.044C609.089 923.122 609.089 849.201 609.089 775.279C609.089 752.139 605.965 748.795 583.266 747.528C581.518 747.441 579.814 746.873 577.389 746.414C577.979 694.736 554.603 661.217 502.235 648.39ZM163.301 996.76C162.842 994.793 162.405 993.766 162.405 992.739C162.449 918.84 162.361 844.961 162.711 771.062C162.798 754.564 169.309 739.837 178.987 726.66C200.637 697.162 238.192 684.838 273.169 695.545C308.037 706.208 332.965 737.455 333.314 774.23C334.035 846.666 333.598 919.102 333.598 991.538C333.598 993.198 332.965 994.881 332.593 996.738C275.988 996.76 220.037 996.76 163.301 996.76ZM518.795 996.192C480.039 996.192 442.833 996.192 405.409 996.192C405.409 946.896 404.863 898.518 405.606 850.14C406.087 819.09 431.713 795.272 462.277 795.447C493.038 795.622 517.594 819.44 518.664 850.533C519.101 863.251 518.795 875.99 518.795 888.729C518.817 924.324 518.795 959.941 518.795 996.192ZM-22.4424 996.782C-22.4424 945.585 -23.36 895.437 -22.0055 845.333C-21.4593 824.771 -8.74433 809.366 10.197 800.626C47.8613 783.254 89.8512 809.934 90.441 852.041C91.0965 897.884 90.6158 943.728 90.5721 989.571C90.5721 991.953 89.9604 994.335 89.6108 996.76C52.2306 996.782 15.5496 996.782 -22.4424 996.782Z" fill="white" fill-opacity="0.08"/>
</g>
</svg>
