<svg width="358" height="479" viewBox="0 0 358 479" fill="none" xmlns="http://www.w3.org/2000/svg">
<path opacity="0.6" fill-rule="evenodd" clip-rule="evenodd" d="M179.452 0.450928L233.925 52.28H305.195V130.357L357.27 185.416L305.195 240.476V315.345H234.044L179.449 368.834L127.429 315.345H52.8052V240.476L0.730103 185.416L52.8052 130.357V52.28H127.549L179.452 0.450928ZM179.924 39.5491L139.135 80.28H80.8052V141.501L39.2699 185.416L80.8052 229.332V287.345H139.255L179.928 329.166L222.614 287.345H277.195V229.332L318.73 185.416L277.195 141.501V80.28H222.733L179.924 39.5491Z" fill="#427B5A"/>
<path opacity="0.6" fill-rule="evenodd" clip-rule="evenodd" d="M245.068 370.224L261.139 385.52H282.342V408.575L297.634 424.748L282.342 440.92V463.109H261.199L245.066 478.918L229.695 463.109H207.658V440.92L192.366 424.748L207.658 408.575V385.52H229.755L245.068 370.224ZM245.304 389.776L235.549 399.52H221.658V414.146L211.634 424.748L221.658 435.35V449.109H235.61L245.306 459.082L255.482 449.109H268.342V435.35L278.366 424.748L268.342 414.146V399.52H255.542L245.304 389.776Z" fill="#427B5A"/>
</svg>
