<svg width="18" height="18" viewBox="0 0 18 18" fill="none" xmlns="http://www.w3.org/2000/svg">
<path fill-rule="evenodd" clip-rule="evenodd" d="M0 7.625C0 3.41383 3.41383 0 7.625 0C11.8362 0 15.25 3.41383 15.25 7.625C15.25 11.8362 11.8362 15.25 7.625 15.25C3.41383 15.25 0 11.8362 0 7.625ZM7.625 1.5C4.24226 1.5 1.5 4.24226 1.5 7.625C1.5 11.0077 4.24226 13.75 7.625 13.75C11.0077 13.75 13.75 11.0077 13.75 7.625C13.75 4.24226 11.0077 1.5 7.625 1.5Z" fill="black"/>
<path fill-rule="evenodd" clip-rule="evenodd" d="M11.953 11.953C12.2459 11.6601 12.7208 11.6601 13.0137 11.953L17.7803 16.7197C18.0732 17.0126 18.0732 17.4874 17.7803 17.7803C17.4874 18.0732 17.0126 18.0732 16.7197 17.7803L11.953 13.0137C11.6601 12.7208 11.6601 12.2459 11.953 11.953Z" fill="black"/>
</svg>
