<svg width="93" height="40" viewBox="0 0 93 40" fill="none" xmlns="http://www.w3.org/2000/svg">
<rect x="0.45459" y="4.99991" width="92.5456" height="35" rx="6" fill="#7EA08C"/>
<path d="M13.6503 1.3953L10.3047 4.85427C9.07791 6.12271 9.98276 8.24681 11.75 8.24681L18.8801 8.24681C20.7043 8.24681 21.5699 6.00468 20.2214 4.77227L16.4368 1.3133C15.6367 0.582024 14.4017 0.618363 13.6503 1.3953Z" fill="#7EA08C"/>
<path fill-rule="evenodd" clip-rule="evenodd" d="M13.25 18.9999C13.25 17.8953 14.1454 16.9999 15.25 16.9999H24.75C25.8546 16.9999 26.75 17.8953 26.75 18.9999V28.4999C26.75 29.6045 25.8546 30.4999 24.75 30.4999H15.25C14.1454 30.4999 13.25 29.6045 13.25 28.4999V18.9999Z" stroke="white" stroke-width="2" stroke-linecap="round" stroke-linejoin="round"/>
<path d="M23 15.4999V18.4999" stroke="white" stroke-width="2" stroke-linecap="round" stroke-linejoin="round"/>
<path d="M17 15.4999V18.4999" stroke="white" stroke-width="2" stroke-linecap="round" stroke-linejoin="round"/>
<path d="M13.25 21.4999H26.75" stroke="white" stroke-width="2" stroke-linecap="round" stroke-linejoin="round"/>
</svg>
