<svg width="61" height="207" viewBox="0 0 61 207" fill="none" xmlns="http://www.w3.org/2000/svg">
<g clip-path="url(#clip0)">
<path d="M12.46 104.78C12.46 101.339 9.67073 98.55 6.23 98.55C2.78927 98.55 -4.22721e-07 101.339 -2.72322e-07 104.78C-1.21923e-07 108.221 2.78927 111.01 6.23 111.01C9.67073 111.01 12.46 108.221 12.46 104.78Z" fill="#FFEAEB"/>
<path d="M12.46 55.5C12.46 52.0592 9.67073 49.27 6.23 49.27C2.78927 49.27 -4.22722e-07 52.0592 -2.72322e-07 55.5C-1.21923e-07 58.9407 2.78927 61.73 6.23 61.73C9.67073 61.73 12.46 58.9407 12.46 55.5Z" fill="#FFEAEB"/>
<path d="M12.46 200.15C12.46 196.709 9.67073 193.92 6.23 193.92C2.78927 193.92 -4.22721e-07 196.709 -2.72322e-07 200.15C-1.21923e-07 203.591 2.78927 206.38 6.23 206.38C9.67073 206.38 12.46 203.591 12.46 200.15Z" fill="#FFEAEB"/>
<path d="M12.46 151.2C12.46 147.759 9.67073 144.97 6.23 144.97C2.78927 144.97 -4.22721e-07 147.759 -2.72322e-07 151.2C-1.21923e-07 154.641 2.78927 157.43 6.23 157.43C9.67073 157.43 12.46 154.641 12.46 151.2Z" fill="#FFEAEB"/>
<path d="M12.46 6.23003C12.46 2.78929 9.67073 1.48361e-05 6.23 1.49865e-05C2.78927 1.51369e-05 -4.22721e-07 2.78929 -2.72322e-07 6.23003C-1.21923e-07 9.67076 2.78927 12.46 6.23 12.46C9.67073 12.46 12.46 9.67076 12.46 6.23003Z" fill="#FFEAEB"/>
<path d="M48.0601 104.78C48.0601 101.339 45.2708 98.55 41.8301 98.55C38.3894 98.55 35.6001 101.339 35.6001 104.78C35.6001 108.221 38.3894 111.01 41.8301 111.01C45.2708 111.01 48.0601 108.221 48.0601 104.78Z" fill="#FFEAEB"/>
<path d="M48.0601 55.5C48.0601 52.0592 45.2708 49.27 41.8301 49.27C38.3894 49.27 35.6001 52.0592 35.6001 55.5C35.6001 58.9407 38.3894 61.73 41.8301 61.73C45.2708 61.73 48.0601 58.9407 48.0601 55.5Z" fill="#FFEAEB"/>
<path d="M48.0601 200.15C48.0601 196.709 45.2708 193.92 41.8301 193.92C38.3894 193.92 35.6001 196.709 35.6001 200.15C35.6001 203.591 38.3894 206.38 41.8301 206.38C45.2708 206.38 48.0601 203.591 48.0601 200.15Z" fill="#FFEAEB"/>
<path d="M48.0601 151.2C48.0601 147.759 45.2708 144.97 41.8301 144.97C38.3894 144.97 35.6001 147.759 35.6001 151.2C35.6001 154.641 38.3894 157.43 41.8301 157.43C45.2708 157.43 48.0601 154.641 48.0601 151.2Z" fill="#FFEAEB"/>
<path d="M48.0601 6.23C48.0601 2.78926 45.2708 -1.56815e-05 41.8301 -1.55311e-05C38.3894 -1.53807e-05 35.6001 2.78926 35.6001 6.23C35.6001 9.67073 38.3894 12.46 41.8301 12.46C45.2708 12.46 48.0601 9.67073 48.0601 6.23Z" fill="#FFEAEB"/>
</g>
<defs>
<clipPath id="clip0">
<rect width="206.38" height="83.05" fill="white" transform="translate(0 206.38) rotate(-90)"/>
</clipPath>
</defs>
</svg>
