<svg width="53" height="54" viewBox="0 0 53 54" fill="none" xmlns="http://www.w3.org/2000/svg">
<path d="M2.94927 13.6706C3.43077 12.6705 5.0975 10.3618 6.33211 9.01606C11.4882 3.33857 18.5321 0.246678 26.1353 0.00337587C28.8118 -0.0829624 30.2614 1.51049 27.0613 2.06518C24.518 2.4973 20.3326 5.34926 18.2461 8.06541C12.6955 15.2228 12.8552 26.2504 19.1598 32.9429C26.7034 40.9056 40.917 40.8895 47.8399 32.0787C49.2844 30.2638 50.3461 28.4242 50.6548 27.2019C52.0705 22.1681 53.1793 24.4674 52.9759 28.4489C52.6744 34.7125 49.2303 41.899 44.741 46.1409C23.3858 66.408 -10.1507 40.9622 2.94927 13.6706Z" fill="url(#paint0_linear)"/>
<path d="M28.3135 26.2513C26.8514 25.1686 29.1949 21.4695 28.8691 19.5512C28.6222 19.1808 27.8244 18.6869 26.8514 17.7201C24.9007 15.7818 24.6661 15.4237 24.8883 14.7941C25.1476 14.0656 26.9255 13.5594 29.2342 13.5471C30.0546 13.5471 30.6148 13.4491 31.0155 13.1929C32.5881 12.1874 32.3162 7.43687 34.7282 7.78145C36.7175 8.07155 37.0941 12.0478 38.5555 13.2878C38.6913 13.3989 39.3457 13.4977 40.4692 13.5594C43.173 13.7446 43.815 13.9545 44.4446 14.8558C44.4868 16.2256 43.3073 16.9694 42.3705 17.9176C41.1853 19.1152 40.4815 19.9054 40.4198 20.1399C40.3581 20.3745 40.4321 20.8066 40.6544 21.498C41.0988 22.8684 41.3087 24.8562 41.1235 25.7204C40.8643 26.8562 40.4692 26.955 38.9506 26.2513C38.3333 25.9673 37.7036 25.634 37.5308 25.5229C36.753 24.9796 35.0245 24.1648 34.6541 24.1648C32.7951 24.1648 29.309 26.9884 28.3135 26.2513Z" fill="url(#paint1_linear)"/>
<defs>
<linearGradient id="paint0_linear" x1="26.5" y1="0" x2="26.5" y2="53.456" gradientUnits="userSpaceOnUse">
<stop stop-color="#0C4524"/>
<stop offset="1" stop-color="#040B07"/>
</linearGradient>
<linearGradient id="paint1_linear" x1="34.6327" y1="7.76361" x2="34.6327" y2="26.696" gradientUnits="userSpaceOnUse">
<stop stop-color="#0C4524"/>
<stop offset="1" stop-color="#040B07"/>
</linearGradient>
</defs>
</svg>
