<svg width="29" height="29" viewBox="0 0 29 29" fill="none" xmlns="http://www.w3.org/2000/svg">
<path fill-rule="evenodd" clip-rule="evenodd" d="M0 14.5C0 22.5081 6.49187 29 14.5 29C22.5081 29 29 22.5081 29 14.5C29 6.49187 22.5081 0 14.5 0C6.49187 0 0 6.49187 0 14.5ZM23.6 13.9451C23.5981 18.6979 19.7318 22.5652 14.9779 22.5671H14.9744C13.5313 22.5666 12.1134 22.2046 10.8541 21.5177L6.28332 22.7166L7.50653 18.2487C6.752 16.9411 6.35497 15.4579 6.35561 13.9383C6.3575 9.18434 10.2254 5.31665 14.9778 5.31665C17.2844 5.31764 19.4492 6.21557 21.0771 7.84533C22.7049 9.47502 23.601 11.6413 23.6 13.9451Z" fill="white"/>
<path fill-rule="evenodd" clip-rule="evenodd" d="M8.35352 20.6682L11.0659 19.9567L11.3275 20.1121C12.4278 20.765 13.6891 21.1105 14.9751 21.111H14.978C18.9279 21.111 22.1427 17.8961 22.1443 13.9446C22.145 12.0297 21.4003 10.2292 20.0473 8.87457C18.6943 7.51997 16.8949 6.77361 14.9808 6.77295C11.0278 6.77295 7.81297 9.98752 7.8114 13.9387C7.81085 15.2929 8.18973 16.6116 8.90709 17.7526L9.07749 18.0237L8.35352 20.6682ZM19.0267 15.8014C19.1769 15.874 19.2784 15.9231 19.3217 15.9954C19.3756 16.0852 19.3756 16.5166 19.1961 17.0199C19.0165 17.5231 18.1559 17.9824 17.7419 18.0442C17.3708 18.0997 16.9011 18.1229 16.385 17.9589C16.0721 17.8596 15.6708 17.727 15.1568 17.505C13.1371 16.633 11.7722 14.6754 11.5143 14.3055C11.4962 14.2796 11.4836 14.2614 11.4765 14.252L11.4748 14.2497C11.3607 14.0976 10.5968 13.0783 10.5968 12.0234C10.5968 11.031 11.0843 10.5109 11.3087 10.2714C11.324 10.255 11.3382 10.2399 11.3508 10.2261C11.5483 10.0104 11.7817 9.95651 11.9253 9.95651C12.0689 9.95651 12.2127 9.95784 12.3382 9.96414C12.3537 9.96492 12.3698 9.96483 12.3865 9.96473C12.512 9.96399 12.6686 9.96307 12.823 10.334C12.8824 10.4767 12.9693 10.6883 13.061 10.9115C13.2463 11.3628 13.4512 11.8615 13.4872 11.9336C13.5411 12.0415 13.577 12.1672 13.5052 12.3111C13.4944 12.3326 13.4844 12.353 13.4749 12.3724C13.4209 12.4826 13.3813 12.5636 13.2897 12.6704C13.2537 12.7125 13.2165 12.7578 13.1793 12.8031C13.1052 12.8933 13.0311 12.9836 12.9666 13.0479C12.8587 13.1553 12.7464 13.2719 12.8721 13.4876C12.9978 13.7032 13.4301 14.4087 14.0706 14.98C14.7591 15.5941 15.3574 15.8536 15.6607 15.9852C15.72 16.0109 15.7679 16.0317 15.8031 16.0493C16.0185 16.1572 16.1442 16.1391 16.2698 15.9954C16.3955 15.8516 16.8084 15.3663 16.952 15.1506C17.0956 14.935 17.2393 14.9709 17.4367 15.0428C17.6342 15.1148 18.6934 15.6359 18.9089 15.7437C18.9509 15.7648 18.9902 15.7838 19.0267 15.8014Z" fill="white"/>
</svg>
